<svg width="45" height="45" viewBox="0 0 45 45" fill="none" xmlns="http://www.w3.org/2000/svg">
<path d="M25.0312 25.3125H21.0938C20.25 25.3125 19.6875 24.75 19.6875 23.9062V19.9688C19.6875 19.5469 19.8281 19.2656 20.1094 18.9844L35.0156 4.07813C35.2969 3.79688 35.5781 3.65625 36 3.65625C36.4219 3.65625 36.7031 3.79688 36.9844 4.07813L40.9219 8.01562C41.4844 8.57812 41.4844 9.42188 40.9219 9.98438L26.0156 24.8906C25.7344 25.1719 25.4531 25.3125 25.0312 25.3125Z" fill="#5FC2BA"/>
<path d="M27.9844 26.8594C27.1406 27.7031 26.1562 28.125 25.0312 28.125H21.0938C18.7031 28.125 16.875 26.2969 16.875 23.9062V19.9688C16.875 18.8438 17.2969 17.7188 18.1406 17.0156L26.5781 8.4375H12.6562C10.2656 8.4375 8.4375 10.2656 8.4375 12.6562V32.3438C8.4375 34.7344 10.2656 36.5625 12.6562 36.5625H32.3438C34.7344 36.5625 36.5625 34.7344 36.5625 32.3438V18.4219L27.9844 26.8594Z" fill="#5FC2BA"/>
</svg>
