<svg width="45" height="45" viewBox="0 0 45 45" fill="none" xmlns="http://www.w3.org/2000/svg">
<path d="M41.1937 34.3687C41.1937 35.0437 41.0437 35.7375 40.725 36.4125C40.5484 36.7866 40.3431 37.149 40.1025 37.5C40.0187 37.6221 39.9308 37.7428 39.8383 37.8621C39.717 38.0188 39.5876 38.1731 39.45 38.325C39.0945 38.7167 38.7251 39.0664 38.3392 39.375C37.7282 39.864 37.0762 40.2501 36.375 40.5375C35.25 41.0062 34.0313 41.25 32.7188 41.25C30.8063 41.25 28.7625 40.8 26.6062 39.8812C24.45 38.9625 22.2937 37.725 20.1562 36.1687C18 34.5937 15.9562 32.85 14.0062 30.9187C12.075 28.9687 10.3312 26.925 8.775 24.7875C7.2375 22.65 6 20.5125 5.1 18.3937C4.2 16.2562 3.75 14.2125 3.75 12.2625C3.75 10.9875 3.975 9.76875 4.425 8.64375C4.875 7.5 5.5875 6.45 6.58125 5.5125C7.78125 4.33125 9.09375 3.75 10.4813 3.75C11.0063 3.75 11.5313 3.8625 12 4.0875C12.4875 4.3125 12.9188 4.65 13.2563 5.1375L17.6063 11.2687C17.9438 11.7375 18.1875 12.1687 18.3562 12.5812C18.525 12.975 18.6188 13.3687 18.6188 13.725C18.6188 14.175 18.4875 14.625 18.225 15.0562C17.9813 15.4875 17.625 15.9375 17.175 16.3875L15.75 17.8687C15.5437 18.075 15.45 18.3187 15.45 18.6187C15.45 18.7687 15.4688 18.9 15.5063 19.05C15.5625 19.2 15.6188 19.3125 15.6563 19.425C15.9938 20.0437 16.575 20.85 17.4 21.825C18.2437 22.8 19.1437 23.7937 20.1187 24.7875C21.1312 25.7812 22.1062 26.7 23.1 27.5437C24.075 28.3687 24.8812 28.9312 25.5187 29.2687C25.6125 29.3062 25.725 29.3625 25.8562 29.4187C26.0062 29.475 26.1562 29.4937 26.325 29.4937C26.6437 29.4937 26.8875 29.3812 27.0937 29.175L28.5188 27.7687C28.9875 27.3 29.4375 26.9437 29.8688 26.7187C30.3 26.4562 30.7312 26.325 31.2 26.325C31.5562 26.325 31.9313 26.4 32.3438 26.5687C32.7562 26.7375 33.1875 26.9812 33.6563 27.3L39.8625 31.7062C40.35 32.0437 40.6875 32.4375 40.8937 32.9062C41.0812 33.375 41.1937 33.8437 41.1937 34.3687Z" fill="#5FC2BA"/>
<path fill-rule="evenodd" clip-rule="evenodd" d="M5.60546 4.49979C7.01537 3.11621 8.66361 2.34375 10.4813 2.34375C11.1997 2.34375 11.9308 2.49634 12.5989 2.81512C13.2892 3.13554 13.9183 3.62612 14.4074 4.32979L18.7506 10.4512C19.1349 10.9857 19.4357 11.5087 19.6534 12.0382C19.8744 12.5571 20.025 13.1371 20.025 13.725C20.025 14.4504 19.8137 15.1437 19.4381 15.7676C19.119 16.3272 18.683 16.8669 18.1793 17.3719L16.8879 18.7143C16.901 18.7452 16.9185 18.7869 16.9375 18.8353C17.2181 19.3273 17.715 20.0197 18.4685 20.9107C19.2937 21.8642 20.169 22.8302 21.1132 23.7932C22.1106 24.7717 23.0552 25.6609 24.009 26.4709C24.9109 27.2338 25.6136 27.7202 26.1244 27.9979C26.1656 28.0157 26.2037 28.0329 26.2346 28.047L27.5278 26.7709C28.0406 26.2586 28.5904 25.8071 29.1773 25.4936C29.7904 25.1286 30.4588 24.9187 31.2 24.9187C31.7623 24.9187 32.3179 25.0387 32.8763 25.2671C33.4067 25.4842 33.9261 25.7829 34.4469 26.1371L34.4588 26.1452L40.6704 30.5552C41.3353 31.0172 41.8564 31.6022 42.1809 32.3398L42.1905 32.3617L42.1995 32.3841C42.4384 32.9812 42.6 33.6283 42.6 34.3687C42.6 35.2547 42.4026 36.1532 41.9966 37.0131C41.7898 37.4509 41.5476 37.8789 41.2624 38.295C41.1634 38.4396 41.0593 38.5824 40.95 38.7234C40.8064 38.9089 40.6537 39.0907 40.4919 39.2692C40.0903 39.7119 39.6664 40.1143 39.2179 40.473C38.5069 41.0421 37.7406 41.4971 36.9122 41.8371C35.6104 42.3789 34.2084 42.6562 32.7188 42.6562C30.5839 42.6562 28.3524 42.1539 26.055 41.175C23.7909 40.2103 21.5428 38.9177 19.3286 37.3056L19.3268 37.3042C17.1126 35.6871 15.0155 33.8974 13.0167 31.9179L13.007 31.9084C11.0278 29.9098 9.23769 27.8122 7.63815 25.6151L7.63339 25.6087C6.04639 23.4024 4.75331 21.1744 3.80569 18.9435L3.80394 18.9394C2.84473 16.6613 2.34375 14.4319 2.34375 12.2625C2.34375 10.8222 2.598 9.42622 3.11786 8.12516C3.64663 6.78287 4.47718 5.56695 5.60546 4.49979Z" fill="#5FC2BA"/>
</svg>
