<svg width="30" height="28" viewBox="0 0 30 28" fill="none" xmlns="http://www.w3.org/2000/svg">
<path d="M19.8558 28H12.847C12.5248 28 12.231 27.7947 12.0908 27.4714C11.9507 27.1482 11.9889 26.7643 12.1891 26.4831L21.4934 13.4186C21.7815 13.0137 22.3099 12.946 22.6732 13.2672C23.0366 13.5882 23.0975 14.1766 22.8091 14.5814L14.5851 26.1291H19.45L28.0881 14L19.4501 1.87089H14.5852L19.4417 8.69012C19.73 9.09493 19.6692 9.68333 19.3058 10.0043C18.9426 10.3255 18.4143 10.2576 18.126 9.8529L12.1892 1.51687C11.9889 1.23575 11.9508 0.851768 12.0909 0.528553C12.2311 0.205338 12.5249 0 12.8471 0H19.8559C20.1122 0 20.3545 0.130409 20.5138 0.354087L29.8181 13.4186C30.0606 13.7592 30.0606 14.2409 29.8181 14.5814L20.5137 27.6458C20.3543 27.8695 20.1121 28 19.8558 28Z" fill="white"/>
<path d="M7.84858 0.935547L17.153 14.0001L7.84858 27.0647H0.839783L10.1442 14.0001L0.839783 0.935547H7.84858Z" fill="white"/>
<path d="M7.84859 28H0.839789C0.517583 28 0.223794 27.7947 0.0836381 27.4714C-0.056518 27.1482 -0.0183149 26.7643 0.1819 26.4831L9.07226 14L0.1819 1.51687C-0.0183735 1.23575 -0.056518 0.851768 0.0836381 0.528553C0.223794 0.205338 0.517524 0 0.839789 0H7.84859C8.10488 0 8.34716 0.130409 8.50648 0.354087L17.8109 13.4186C18.0534 13.7592 18.0534 14.2409 17.8109 14.5814L8.50648 27.6458C8.34716 27.8695 8.10494 28 7.84859 28ZM2.57797 26.1291H7.44289L16.0811 14L7.44289 1.87089H2.57797L10.8021 13.4186C11.0446 13.7591 11.0446 14.2408 10.8021 14.5814L2.57797 26.1291Z" fill="white"/>
</svg>
