<svg width="100" height="100" viewBox="0 0 100 100" fill="none" xmlns="http://www.w3.org/2000/svg">
<path d="M89.1 30.7999H34C33.6 30.7999 33.25 30.6666 32.95 30.3999C32.65 30.1332 32.4667 29.7999 32.4 29.3999L29.2 12.9999C29.0667 12.0666 28.6667 11.3166 28 10.7499C27.3334 10.1832 26.5334 9.8999 25.6 9.8999H11C10 9.8999 9.15002 10.2499 8.45002 10.9499C7.75002 11.6499 7.40002 12.4999 7.40002 13.4999V13.9999C7.40002 14.9999 7.75002 15.8666 8.45002 16.5999C9.15002 17.3332 10 17.6999 11 17.6999H21.2C21.4667 17.6999 21.7 17.7832 21.9 17.9499C22.1 18.1166 22.2334 18.3332 22.3 18.5999L32.5 72.9999C32.7 74.2666 33.3667 75.1999 34.5 75.7999C35.0334 76.1332 35.6334 76.2999 36.3 76.2999H38C36.5334 77.9666 35.8334 79.9166 35.9 82.1499C35.9667 84.3832 36.8 86.2666 38.4 87.7999C40 89.3332 41.9167 90.0999 44.15 90.0999C46.3834 90.0999 48.3167 89.3332 49.95 87.7999C51.5834 86.2666 52.4334 84.3832 52.5 82.1499C52.5667 79.9166 51.8334 77.9666 50.3 76.2999H68.9C67.3667 77.9666 66.65 79.9166 66.75 82.1499C66.85 84.3832 67.7 86.2666 69.3 87.7999C70.9 89.3332 72.8167 90.0999 75.05 90.0999C77.2834 90.0999 79.2 89.3332 80.8 87.7999C82.4 86.2666 83.2334 84.3832 83.3 82.1499C83.3667 79.9166 82.6667 77.9666 81.2 76.2999H82.9C83.9 76.2999 84.75 75.9499 85.45 75.2499C86.15 74.5499 86.5 73.6999 86.5 72.6999V71.8999C86.5 70.8999 86.1334 70.0499 85.4 69.3499C84.6667 68.6499 83.8 68.2999 82.8 68.2999H40.9C40.5 68.2999 40.15 68.1666 39.85 67.8999C39.55 67.6332 39.3667 67.3332 39.3 66.9999L38.3 61.5999C38.2334 61.0666 38.3667 60.5999 38.7 60.1999C39.0334 59.7999 39.4334 59.6332 39.9 59.6999H85.9C86.7667 59.6999 87.5167 59.4332 88.15 58.8999C88.7834 58.3666 89.1667 57.6666 89.3 56.7999L92.6 34.8999C92.8 33.8332 92.55 32.8832 91.85 32.0499C91.15 31.2166 90.2334 30.7999 89.1 30.7999Z" fill="#FFF500"/>
</svg>
