<svg width="1000" height="1000" viewBox="0 0 1000 1000" fill="none" xmlns="http://www.w3.org/2000/svg">
<path d="M561.66 317.5C518.08 304.4 477.24 313.76 440.24 345.33C409.89 371.44 387.93 406.53 374.98 449.62C359.92 499.75 355.42 543.62 361.62 580.22C370.42 630.12 398.97 662.66 446.47 676.93C490.66 690.21 529.7 682.51 562.47 654.03C593.73 626.9 619.53 580.03 639.17 514.65C651.67 473.07 652.75 434.25 642.4 399.24C630 357.36 602.81 329.86 561.66 317.5ZM465.54 613.5C444.63 607.22 432.2 593.1 427.54 570.33C422.38 545.24 426.54 509.95 439.91 465.45C447.91 438.83 461.09 416.72 479.09 399.74C499.45 380.55 520.14 374.47 542.34 381.14C562.28 387.14 574.47 399.14 579.59 417.81C585.19 438.26 582.53 466.91 571.7 502.96C561.18 537.96 548.11 565.76 532.84 585.61C512.61 611.88 490.6 621 465.54 613.47V613.5Z" fill="#D9CFFF"/>
<path d="M486.93 684.75C473.048 684.639 459.257 682.489 446 678.37C397.91 663.92 369 630.98 360.1 580.48C353.86 543.72 358.38 499.55 373.51 449.19C386.51 405.82 408.65 370.49 439.22 344.19C476.63 312.26 517.95 302.8 562.06 316.05C603.72 328.57 631.23 356.41 643.83 398.81C654.26 434.1 653.18 473.21 640.6 515.07C620.92 580.71 595 627.84 563.48 655.16C540.79 674.86 515.15 684.75 486.93 684.75ZM524.24 313.27C494.92 313.27 467.12 324.37 441.24 346.48C411.11 372.39 389.31 407.24 376.44 450.05C361.42 500 356.94 543.67 363.1 580C371.79 629.28 399.98 661.43 446.9 675.53C490.57 688.65 529.13 681.05 561.51 652.93C592.51 625.99 618.21 579.33 637.76 514.25C650.17 472.96 651.26 434.42 640.99 399.7C628.7 358.34 601.86 331.17 561.23 318.96C549.244 315.267 536.782 313.349 524.24 313.27ZM482.09 617.54C476.325 617.502 470.597 616.615 465.09 614.91C443.61 608.45 430.83 593.96 426.03 570.6C420.82 545.26 425.03 509.73 438.44 464.99C446.51 438.12 459.83 415.79 478.02 398.62C498.83 379 520 372.83 542.75 379.67C563.23 385.82 575.75 398.16 581.01 417.39C586.69 438.11 584.01 467.04 573.11 503.39C562.54 538.56 549.39 566.52 534.01 586.51C518 607.27 500.93 617.53 482.09 617.54ZM525.3 380C509.77 380 494.86 386.88 480.1 400.79C462.29 417.59 449.25 439.48 441.33 465.84C428 510.11 423.88 545.15 429 570C433.55 592.18 445.65 605.93 466 612C490.39 619.33 511.87 610.37 531.66 584.62C546.82 564.92 559.81 537.28 570.27 502.46C581.02 466.68 583.67 438.31 578.15 418.14C573.15 399.99 561.32 388.34 541.92 382.5C536.533 380.856 530.933 380.014 525.3 380Z" fill="#1D1E1B"/>
<path d="M613.2 550.86C612.321 550.86 611.456 550.649 610.675 550.246C609.894 549.843 609.222 549.258 608.714 548.541C608.205 547.824 607.876 546.996 607.754 546.126C607.632 545.256 607.719 544.369 608.01 543.54C630.09 480.54 626.79 437.82 620.14 413.09C612.99 386.52 600.54 374.49 600.42 374.37C599.475 373.348 598.952 372.007 598.958 370.615C598.963 369.223 599.495 367.885 600.448 366.871C601.4 365.856 602.702 365.24 604.09 365.147C605.479 365.054 606.851 365.491 607.93 366.37C608.52 366.92 622.42 380.11 630.5 409.32C637.79 435.66 641.6 480.97 618.39 547.22C618.006 548.288 617.302 549.211 616.372 549.863C615.443 550.515 614.335 550.863 613.2 550.86Z" fill="white"/>
<path d="M430.1 659.78C429.195 659.78 428.305 659.553 427.51 659.12C396.78 642.66 377.81 608.34 372.65 559.88C370.34 537.283 370.794 514.488 374 492C374.237 490.56 375.037 489.273 376.223 488.423C377.409 487.572 378.885 487.228 380.325 487.465C381.765 487.702 383.052 488.502 383.902 489.688C384.753 490.874 385.097 492.35 384.86 493.79C384.66 494.99 365.98 613.72 432.72 649.47C433.802 650.049 434.66 650.973 435.157 652.096C435.653 653.218 435.76 654.475 435.459 655.665C435.159 656.855 434.47 657.911 433.5 658.664C432.531 659.417 431.337 659.824 430.11 659.82L430.1 659.78Z" fill="white"/>
<path d="M668.94 772.33H668.62C608.95 762.85 568.92 726.13 545.84 697C520.84 665.48 509.84 635.76 509.71 635.46C509.527 634.961 509.55 634.41 509.773 633.929C509.996 633.447 510.401 633.073 510.9 632.89C511.399 632.707 511.95 632.73 512.431 632.953C512.913 633.176 513.287 633.581 513.47 634.08C513.58 634.38 524.47 663.59 549.06 694.61C571.68 723.15 610.9 759.11 669.25 768.38C669.513 768.4 669.769 768.472 670.004 768.592C670.238 768.711 670.448 768.875 670.619 769.075C670.79 769.275 670.92 769.507 671.002 769.758C671.084 770.008 671.115 770.272 671.095 770.535C671.075 770.798 671.003 771.054 670.883 771.289C670.764 771.523 670.6 771.732 670.4 771.904C670.2 772.075 669.968 772.205 669.717 772.287C669.467 772.369 669.203 772.4 668.94 772.38V772.33Z" fill="#1D1D1B"/>
<path d="M665.82 910.7C665.425 910.699 665.038 910.581 664.71 910.36C627.05 885.08 594 855.63 566.48 822.83C544.731 796.997 526.208 768.611 511.32 738.3C486.49 687.44 481.78 649.54 481.73 649.16C481.668 648.63 481.819 648.096 482.15 647.677C482.481 647.258 482.965 646.987 483.495 646.925C484.025 646.863 484.559 647.014 484.978 647.345C485.397 647.676 485.668 648.16 485.73 648.69C485.78 649.06 490.44 686.42 515.03 736.69C537.72 783.09 582.49 850.3 666.97 907.02C667.326 907.259 667.596 907.607 667.739 908.011C667.883 908.415 667.893 908.855 667.767 909.265C667.641 909.675 667.387 910.034 667.042 910.289C666.697 910.544 666.279 910.681 665.85 910.68L665.82 910.7Z" fill="#1D1D1B"/>
<path d="M682 431H681.93C681.667 430.991 681.409 430.93 681.17 430.821C680.931 430.712 680.715 430.557 680.536 430.365C680.357 430.173 680.217 429.947 680.125 429.701C680.033 429.455 679.991 429.193 680 428.93C681.62 385.3 671.1 351.19 648.75 327.55C618.14 295.19 575.39 294 575 294C574.47 294 573.961 293.789 573.586 293.414C573.211 293.039 573 292.53 573 292C573 291.47 573.211 290.961 573.586 290.586C573.961 290.211 574.47 290 575 290C575.44 290 619.79 291.18 651.58 324.76C674.72 349.21 685.58 384.31 683.96 429.07C683.942 429.581 683.729 430.066 683.365 430.425C683 430.784 682.512 430.99 682 431Z" fill="#1D1D1B"/>
<path d="M522.54 311.78C521.487 308.877 520.147 306.087 518.54 303.45C505.68 282.1 447.65 266.36 447.65 266.36L368.09 309L471.68 324.3C487.472 316.345 504.859 312.064 522.54 311.78Z" fill="#FFCDB2"/>
<path d="M472 326.38L471.38 326.29L361.81 310.11L447.37 264.22L448.14 264.43C450.54 265.08 507.08 280.63 520.21 302.43C521.905 305.181 523.319 308.096 524.43 311.13L525.35 313.75H522.57C505.19 314.052 488.101 318.262 472.57 326.07L472 326.38ZM374.35 307.91L471.35 322.24C486.396 314.779 502.841 310.561 519.62 309.86C518.784 308.012 517.839 306.216 516.79 304.48C505.26 285.35 454.68 270.48 447.85 268.48L374.35 307.91Z" fill="#1D1E1B"/>
<path d="M369.49 309.94L378.68 320.04C378.68 320.04 372.4 334.58 383.96 369.85C402.24 425.58 442.37 403.12 442.37 403.12C464.37 414.55 479.37 391.05 479.37 391.05C479.37 391.05 511.32 416.55 517.44 370.64C520.94 344.38 497.06 318.08 475.33 299.58" fill="#FFCDB2"/>
<path d="M424 409.11C419.585 409.128 415.206 408.317 411.09 406.72C398.48 401.81 388.89 389.56 382.58 370.31C372.45 339.42 375.81 324.17 377.01 320.38L368.38 311L370.6 309L380.44 319.81L380.06 320.7C380 320.84 374.2 335.33 385.39 369.45C391.39 387.78 400.39 399.4 412.1 403.99C427.1 409.83 441.5 401.99 441.64 401.88L442.34 401.49L443.06 401.86C463.65 412.53 477.48 391.23 478.06 390.32L478.96 388.91L480.26 389.91C480.39 390.01 492.75 399.7 502.81 395.65C509.64 392.89 514.05 384.42 515.91 370.47C518.64 350.03 504.64 326.58 474.31 300.75L476.26 298.47C507.41 325 521.75 349.35 518.89 370.86C516.89 385.98 511.84 395.25 503.89 398.44C494.15 402.35 483.3 395.76 479.64 393.19C476.78 397 467.53 407.77 454.34 407.78C450.165 407.74 446.057 406.731 442.34 404.83C436.618 407.594 430.354 409.056 424 409.11Z" fill="#1D1E1B"/>
<path d="M478.76 392.34H478.57C478.176 392.288 477.818 392.082 477.575 391.767C477.331 391.453 477.222 391.055 477.27 390.66C477.27 390.39 480.42 363.84 460.58 340.66C460.353 340.355 460.251 339.976 460.293 339.599C460.335 339.222 460.518 338.875 460.806 338.627C461.094 338.38 461.465 338.251 461.844 338.266C462.224 338.282 462.583 338.44 462.85 338.71C483.59 362.95 480.39 389.92 480.25 391.05C480.199 391.409 480.02 391.737 479.746 391.974C479.473 392.211 479.122 392.341 478.76 392.34Z" fill="#1D1D1B"/>
<path d="M442.74 404.6C442.5 404.601 442.263 404.543 442.05 404.432C441.838 404.32 441.656 404.158 441.52 403.96C440.8 402.96 424 378.86 423.75 350.96C423.747 350.561 423.903 350.178 424.182 349.893C424.461 349.608 424.841 349.445 425.24 349.44C425.636 349.44 426.016 349.597 426.297 349.876C426.578 350.155 426.737 350.534 426.74 350.93C426.98 377.93 443.79 401.93 443.96 402.2C444.116 402.426 444.208 402.69 444.226 402.964C444.243 403.238 444.186 403.512 444.059 403.756C443.933 403.999 443.742 404.204 443.508 404.348C443.274 404.491 443.005 404.568 442.73 404.57L442.74 404.6Z" fill="#1D1D1B"/>
<path d="M407.3 390.6C406.882 390.596 406.47 390.506 406.09 390.333C405.709 390.161 405.369 389.911 405.09 389.6C404.28 388.71 385.33 367.44 386.09 330.28C386.098 329.886 386.183 329.497 386.341 329.136C386.499 328.776 386.727 328.449 387.011 328.176C387.585 327.625 388.354 327.324 389.15 327.34C389.544 327.348 389.933 327.433 390.294 327.591C390.655 327.749 390.981 327.977 391.254 328.261C391.527 328.545 391.741 328.88 391.885 329.247C392.028 329.614 392.098 330.006 392.09 330.4C391.41 365.06 409.38 385.4 409.56 385.56C409.946 385.991 410.199 386.525 410.288 387.097C410.377 387.668 410.3 388.254 410.064 388.782C409.828 389.31 409.445 389.759 408.96 390.075C408.475 390.39 407.909 390.559 407.33 390.56L407.3 390.6Z" fill="white"/>
<path d="M238.5 129.5C248.74 145.74 296.98 252.61 312.16 281.59C327.34 310.57 362.78 302.21 362.78 302.21L373 317.1L450.15 264.66L440.15 239.8C440.15 239.8 463.03 229.11 456.65 194.39C450.27 159.67 436.45 145.5 425.45 129.5" fill="#5FC2BA"/>
<path d="M372.63 319.18L362.1 303.87C356.1 304.97 324.9 309.15 310.83 282.29C304.2 269.63 291.47 242.57 278 213.91C260.77 177.27 243 139.39 237.23 130.3L239.77 128.7C245.6 137.94 263.45 175.91 280.77 212.63C294.22 241.26 306.94 268.3 313.54 280.9C327.99 308.49 361.09 301.08 362.49 300.75L363.49 300.52L373.49 315.02L448.41 264.1L438.28 239L439.57 238.4C440.46 237.99 461.31 227.71 455.22 194.62C449.89 165.62 439.58 151.49 429.61 137.8C427.75 135.24 425.99 132.8 424.26 130.31L426.74 128.61C428.44 131.09 430.19 133.49 432.04 136.03C441.73 149.35 452.72 164.44 458.17 194.08C463.81 224.74 446.91 237.47 442.08 240.42L452 265.22L372.63 319.18Z" fill="#1D1D1B"/>
<path d="M437.81 239.11C437.81 239.11 378.86 246.72 363.81 300.57L373.48 315.52L447.48 264.11L437.81 239.11Z" fill="#5FC2BA"/>
<path d="M431.71 192.05C436.205 192.05 439.85 188.406 439.85 183.91C439.85 179.414 436.205 175.77 431.71 175.77C427.214 175.77 423.57 179.414 423.57 183.91C423.57 188.406 427.214 192.05 431.71 192.05Z" fill="#5FC2BA"/>
<path d="M329.43 233.82C333.926 233.82 337.57 230.176 337.57 225.68C337.57 221.184 333.926 217.54 329.43 217.54C324.934 217.54 321.29 221.184 321.29 225.68C321.29 230.176 324.934 233.82 329.43 233.82Z" fill="#5FC2BA"/>
<path d="M351.79 168.58C356.286 168.58 359.93 164.936 359.93 160.44C359.93 155.944 356.286 152.3 351.79 152.3C347.294 152.3 343.65 155.944 343.65 160.44C343.65 164.936 347.294 168.58 351.79 168.58Z" fill="#5FC2BA"/>
<path d="M389.53 233.05C394.026 233.05 397.67 229.406 397.67 224.91C397.67 220.414 394.026 216.77 389.53 216.77C385.035 216.77 381.39 220.414 381.39 224.91C381.39 229.406 385.035 233.05 389.53 233.05Z" fill="#5FC2BA"/>
<path d="M345.53 294.91C344.705 294.908 343.882 294.834 343.07 294.69C325.66 291.63 304.41 256.75 281.6 193.82C281.399 193.089 281.482 192.309 281.833 191.638C282.184 190.966 282.776 190.451 283.49 190.198C284.204 189.945 284.988 189.971 285.684 190.272C286.379 190.573 286.935 191.126 287.24 191.82C317.45 275.16 336.92 287.39 343.89 288.82C347.57 289.56 349.36 287.73 349.55 287.52C350.064 286.918 350.794 286.544 351.583 286.478C352.371 286.413 353.154 286.661 353.76 287.17C354.064 287.424 354.315 287.736 354.498 288.088C354.682 288.44 354.793 288.825 354.827 289.22C354.86 289.615 354.815 290.013 354.694 290.391C354.572 290.768 354.377 291.118 354.12 291.42C353.01 292.568 351.673 293.472 350.193 294.073C348.714 294.674 347.126 294.959 345.53 294.91Z" fill="white"/>
<path d="M848 131H144C143.47 131 142.961 130.789 142.586 130.414C142.211 130.039 142 129.53 142 129C142 128.47 142.211 127.961 142.586 127.586C142.961 127.211 143.47 127 144 127H848C848.53 127 849.039 127.211 849.414 127.586C849.789 127.961 850 128.47 850 129C850 129.53 849.789 130.039 849.414 130.414C849.039 130.789 848.53 131 848 131Z" fill="#1D1D1B"/>
<path d="M230 156H93C92.4696 156 91.9609 155.789 91.5858 155.414C91.2107 155.039 91 154.53 91 154C91 153.47 91.2107 152.961 91.5858 152.586C91.9609 152.211 92.4696 152 93 152H230C230.53 152 231.039 152.211 231.414 152.586C231.789 152.961 232 153.47 232 154C232 154.53 231.789 155.039 231.414 155.414C231.039 155.789 230.53 156 230 156Z" fill="#1D1D1B"/>
<path d="M902 167H794C793.47 167 792.961 166.789 792.586 166.414C792.211 166.039 792 165.53 792 165C792 164.47 792.211 163.961 792.586 163.586C792.961 163.211 793.47 163 794 163H902C902.53 163 903.039 163.211 903.414 163.586C903.789 163.961 904 164.47 904 165C904 165.53 903.789 166.039 903.414 166.414C903.039 166.789 902.53 167 902 167Z" fill="#1D1D1B"/>
<path d="M378.41 666.1C369.48 663.78 358.28 664.2 344.24 667.38L303.24 500C298.24 479.58 281.85 470.67 259.41 476.17C240.77 480.73 227.35 492.87 219.52 512.24L151.52 692.68L138.63 718.68L138.49 718.98C131.8 733.46 129.64 744.98 131.9 754.23C133.9 762.38 141.2 775.74 167.6 773.71C176.26 773.09 190.41 770.35 210.85 765.35L295.12 746.92L304.52 784.6C304.77 785.6 305.28 788.02 306.32 793.7C307.24 798.77 308.02 802.63 308.73 805.51C318.18 844.09 343.21 842.37 353.53 839.84C373.01 835.07 381.75 820.44 376.91 800.69L360.26 732.69C374.63 729.29 380.16 726.95 383.33 725.24C398.25 717.35 404.62 703.91 400.81 688.37C398 677 390.06 669.12 378.41 666.1ZM257.63 594.1L279.22 682.26L222.1 694.85C232.08 668.27 244 634.57 257.63 594.14V594.1Z" fill="#D9CFFF"/>
<path d="M344.15 842.43C331.74 842.43 314.71 836.33 307.23 805.8C306.52 802.91 305.73 799.01 304.8 793.91C303.8 788.25 303.27 785.91 303.03 784.91L294.03 748.65L211.18 766.76C190.69 771.76 176.46 774.53 167.72 775.16C140.21 777.28 132.57 763.16 130.46 754.53C128.11 744.96 130.3 733.11 137.14 718.3L137.29 717.98L150.11 692L218.11 511.63C226.11 491.75 239.91 479.32 259.04 474.63C270.42 471.84 280.63 472.63 288.57 476.97C296.51 481.31 302.13 489.12 304.69 499.56L345.34 665.56C358.96 662.62 369.91 662.31 378.78 664.56C390.99 667.72 399.31 676 402.22 687.87C406.22 704.12 399.55 718.17 383.98 726.41C380.98 728.04 375.74 730.33 362.03 733.65L378.32 800.18C383.38 820.84 374.23 836.18 353.84 841.18C350.671 841.98 347.418 842.4 344.15 842.43ZM296.15 745.09L305.91 784.18C306.16 785.18 306.68 787.64 307.72 793.38C308.64 798.38 309.42 802.25 310.12 805.09C319.24 842.35 343.22 840.75 353.12 838.32C371.68 833.78 380.01 819.82 375.4 800.99L358.4 731.52L359.88 731.17C374.35 727.75 379.61 725.46 382.58 723.86C396.85 716.31 402.94 703.48 399.32 688.67C396.68 677.92 389.13 670.42 378.04 667.55C369.33 665.29 358.38 665.72 344.57 668.85L343.14 669.17L301.78 500.31C299.43 490.71 294.37 483.56 287.15 479.63C279.93 475.7 270.41 474.97 259.76 477.58C241.62 482.02 228.55 493.85 220.91 512.75L152.91 693.23V693.29L139.91 719.57C133.38 733.71 131.25 744.92 133.43 753.81C135.31 761.5 142.25 774.1 167.56 772.16C176.14 771.54 190.2 768.81 210.56 763.83L296.15 745.09ZM219.69 696.91L220.69 694.32C230.69 667.81 242.59 633.95 256.21 593.66L257.86 588.78L281 683.44L219.69 696.91ZM257.37 599.51C244.86 636.4 233.8 667.75 224.44 692.79L277.36 681.17L257.37 599.51Z" fill="#1D1E1B"/>
<path d="M163.56 704.31C162.665 704.307 161.783 704.085 160.993 703.665C160.202 703.244 159.526 702.637 159.023 701.897C158.52 701.156 158.204 700.304 158.105 699.414C158.005 698.524 158.123 697.624 158.45 696.79L227.69 521.28C227.924 520.571 228.301 519.916 228.796 519.357C229.292 518.798 229.896 518.346 230.572 518.028C231.248 517.71 231.982 517.534 232.729 517.509C233.475 517.484 234.219 517.611 234.915 517.883C235.611 518.155 236.244 518.566 236.776 519.091C237.307 519.616 237.727 520.243 238.008 520.936C238.289 521.628 238.426 522.37 238.411 523.117C238.396 523.864 238.229 524.6 237.92 525.28L168.68 700.83C168.275 701.857 167.569 702.738 166.656 703.359C165.743 703.979 164.664 704.311 163.56 704.31Z" fill="white"/>
<path d="M188 543C187.797 542.999 187.595 542.969 187.4 542.91C187.149 542.831 186.916 542.704 186.714 542.535C186.513 542.367 186.346 542.16 186.225 541.927C186.103 541.694 186.028 541.439 186.005 541.177C185.982 540.915 186.011 540.651 186.09 540.4C201.89 490.51 222.98 459.58 248.79 448.45C268.98 439.74 284.23 446.89 284.87 447.2C285.332 447.44 285.683 447.85 285.848 448.344C286.012 448.838 285.977 449.377 285.751 449.846C285.524 450.315 285.123 450.677 284.634 450.855C284.145 451.033 283.605 451.013 283.13 450.8C282.99 450.74 268.75 444.14 250.25 452.17C233.31 459.53 209.09 481.01 189.91 541.6C189.782 542.006 189.528 542.361 189.185 542.613C188.841 542.865 188.426 543 188 543Z" fill="#1D1D1B"/>
<path d="M871.43 671.32C864.07 665.75 853.57 661.83 839.43 659.32L865.93 489C869.17 468.23 857.47 453.7 834.63 450.14C815.63 447.19 798.63 453.23 783.94 468.14L651.74 608.54L629.85 627.54L629.61 627.76C617.85 638.56 611.43 648.38 609.97 657.76C608.68 666.05 610.27 681.19 635.43 689.47C643.66 692.23 657.77 695.14 678.57 698.39L763.44 713.79L757.63 752.19C757.47 753.19 757.02 755.62 755.79 761.27C754.7 766.27 753.93 770.2 753.47 773.1C747.36 812.34 771.12 820.39 781.63 822.02C801.44 825.11 815.14 814.96 818.27 794.87L829.05 725.7C843.61 728.09 849.62 728.06 853.21 727.7C870.01 726.15 881.06 716.2 883.52 700.39C885.31 688.92 881 678.59 871.43 671.32ZM787.6 558.45L773.6 648.13L716.04 637.74C735.51 617 759.44 590.51 787.6 558.45Z" fill="#D9CFFF"/>
<path d="M788.49 824.12C786.112 824.113 783.738 823.919 781.39 823.54C775.39 822.61 766.82 819.97 760.21 812.71C752.04 803.71 749.27 790.35 751.99 772.91C752.44 770 753.23 766 754.32 760.99C755.55 755.37 755.99 752.99 756.15 751.99L761.74 714.99L678.3 699.9C657.46 696.65 643.3 693.72 634.95 690.9C608.75 682.27 607.12 666.29 608.48 657.53C610 647.79 616.58 637.69 628.59 626.65L628.85 626.42L650.7 607.42L782.85 467.12C797.91 451.85 815.4 445.67 834.85 448.7C846.42 450.51 855.54 455.18 861.21 462.22C866.88 469.26 869.05 478.65 867.39 489.22L841.1 658.15C854.8 660.67 865.02 664.59 872.33 670.15C882.33 677.76 886.88 688.6 885 700.68C882.43 717.21 870.89 727.68 853.35 729.25C849.93 729.59 844.21 729.7 830.3 727.48L819.75 795.16C816.86 813.67 805.38 824.11 788.49 824.12ZM825.49 450.96C810.55 451 797 457.07 785 469.2L652.78 609.62L630.6 628.91C619.13 639.46 612.86 649 611.45 658C610.23 665.82 611.79 680.12 635.9 688.06C644.05 690.79 658.08 693.68 678.8 696.91L765.14 712.58L759.14 752.42C758.98 753.42 758.53 755.9 757.28 761.6C756.2 766.6 755.43 770.49 754.99 773.34C752.41 789.84 754.93 802.4 762.46 810.66C768.46 817.27 776.35 819.66 781.89 820.55C800.78 823.49 813.83 813.81 816.81 794.65L827.81 723.98L829.3 724.23C843.95 726.64 849.7 726.55 853.07 726.23C869.14 724.75 879.7 715.23 882.07 700.23C883.77 689.3 879.68 679.47 870.55 672.56C863.38 667.12 853.11 663.31 839.16 660.88L837.71 660.63L864.48 488.85C866 479.09 864.08 470.54 858.92 464.14C853.76 457.74 845.26 453.39 834.43 451.71C831.467 451.238 828.471 451 825.47 451L825.49 450.96ZM774.89 649.88L713.11 638.73L715 636.73C734.36 616.11 758.41 589.45 786.49 557.47L789.9 553.59L774.89 649.88ZM719.08 636.76L772.4 646.38L785.4 563.31C759.57 592.58 737.3 617.26 719.06 636.76H719.08Z" fill="#1D1E1B"/>
<path d="M826 661.31C825.716 661.31 825.432 661.29 825.15 661.25C823.723 661.014 822.446 660.226 821.595 659.057C820.744 657.888 820.386 656.43 820.6 655L847.55 482.09C847.662 481.376 847.913 480.692 848.289 480.075C848.665 479.458 849.159 478.922 849.743 478.496C850.327 478.07 850.988 477.763 851.69 477.593C852.393 477.423 853.121 477.393 853.835 477.505C854.549 477.617 855.234 477.868 855.85 478.244C856.467 478.62 857.003 479.114 857.429 479.698C857.855 480.282 858.162 480.943 858.332 481.645C858.502 482.348 858.532 483.076 858.42 483.79L831.47 656.66C831.266 657.962 830.602 659.147 829.598 660.001C828.594 660.854 827.318 661.319 826 661.31Z" fill="white"/>
<path d="M884 516C883.887 516.01 883.773 516.01 883.66 516C883.138 515.91 882.673 515.616 882.367 515.182C882.061 514.749 881.94 514.212 882.03 513.69C889.21 472.69 882.09 452.24 874.85 442.32C867.61 432.4 858.85 431.02 858.74 431.01C858.215 430.94 857.74 430.665 857.417 430.245C857.095 429.826 856.952 429.295 857.02 428.77C857.09 428.247 857.363 427.773 857.781 427.451C858.199 427.129 858.727 426.985 859.25 427.05C859.67 427.1 869.64 428.49 877.97 439.81C889.26 455.12 891.97 480.21 885.97 514.37C885.884 514.829 885.639 515.243 885.28 515.541C884.92 515.839 884.467 516.001 884 516Z" fill="#1D1D1B"/>
</svg>
