<svg width="119" height="119" viewBox="0 0 119 119" fill="none" xmlns="http://www.w3.org/2000/svg">
<path d="M59.5 5.11334C28.7013 5.11334 3.73364 30.081 3.73364 60.8797C3.73364 85.3677 19.5197 106.174 41.4715 113.667L41.8657 113.783C44.6548 114.307 45.6774 112.585 45.6774 111.101C45.6774 109.778 45.6328 106.267 45.6068 101.622C30.0959 104.988 26.8234 94.1402 26.8234 94.1402C25.7524 90.7004 23.5583 87.8741 20.6763 86.0185L20.6168 85.985C15.5667 82.5266 21.0072 82.5972 21.0072 82.5972C24.6776 83.1141 27.753 85.2673 29.5195 88.2869L29.5492 88.3427C31.6094 92.0428 35.4992 94.5046 39.9654 94.5046C42.1074 94.5046 44.1156 93.9394 45.8485 92.9465L45.789 92.9762C46.0567 90.0347 47.3546 87.439 49.3181 85.5201L49.3218 85.5164C36.9384 84.1219 23.919 79.3247 23.919 57.9605C23.919 57.8601 23.9153 57.7448 23.9153 57.6295C23.9153 51.9733 26.0982 46.8266 29.6682 42.9851L29.657 43C28.9021 40.9844 28.4633 38.6565 28.4633 36.2281C28.4633 33.3386 29.0806 30.5905 30.1926 28.1138L30.1405 28.2402C30.1405 28.2402 34.8112 26.7453 45.4766 33.956C49.6565 32.7622 54.4574 32.0743 59.4182 32.0743C64.379 32.0743 69.1799 32.7622 73.7317 34.0452L73.3598 33.956C83.9545 26.7453 88.6253 28.2402 88.6253 28.2402C89.6851 30.6277 90.3024 33.4093 90.3024 36.336C90.3024 38.7234 89.8934 41.0142 89.1385 43.1413L89.1831 43C92.7271 46.8377 94.9025 51.9845 94.9025 57.6407C94.9025 57.756 94.9025 57.8675 94.8988 57.9791V57.9605C94.8988 79.3842 81.8646 84.0996 69.4551 85.4718C71.8054 87.8778 73.2557 91.1689 73.2557 94.8021C73.2557 95.148 73.2408 95.4938 73.2148 95.836L73.2185 95.7913C73.2185 103.255 73.1478 109.249 73.1478 111.061C73.1478 112.526 74.1221 114.266 76.9819 113.708C99.3985 106.163 115.255 85.3379 115.255 60.8053C115.255 30.0438 90.3173 5.10962 59.5595 5.10962C59.5372 5.10962 59.5112 5.10962 59.4889 5.10962H59.4926L59.5 5.11334Z" fill="#5FC2BA"/>
</svg>
