<svg width="965" height="878" viewBox="0 0 965 878" fill="none" xmlns="http://www.w3.org/2000/svg">
<path d="M526.594 40.1667C536.311 22.6111 561.554 22.6111 571.27 40.1667L730.955 328.707L890.639 617.247C900.054 634.255 887.744 655.123 868.301 655.123H229.566C210.12 655.123 197.814 634.255 207.228 617.247L526.594 40.1667Z" fill="#5FC2BA"/>
<path d="M396.436 40.3632C406.151 22.8076 431.396 22.8077 441.111 40.3632L760.476 617.443C769.891 634.452 757.586 655.32 738.143 655.32H99.4062C79.9602 655.32 67.6542 634.452 77.0683 617.443L396.436 40.3632Z" fill="#1C2942"/>
<path d="M397.927 360.388C397.927 385.217 397.709 406.561 397.274 424.421H430.604L433.872 401.879C444.982 401.879 455.766 404.601 466.223 410.046V475.386L444.656 476.366C439.427 468.525 436.378 461.665 435.506 455.784H396.947C396.511 486.276 396.293 509.254 396.293 524.717H452.171L459.36 496.295C472.867 496.295 483.106 496.948 490.077 498.255C493.345 510.669 494.979 521.997 494.979 532.231C494.979 542.252 494.652 550.307 493.998 556.407H331.919L328.978 538.439C343.138 532.992 352.288 529.837 356.427 528.964C356.209 516.116 355.992 498.037 355.774 474.733C354.902 422.461 354.14 382.931 353.486 356.141L326.364 347.647L328.978 327.719H489.424C490.077 333.599 490.404 341.005 490.404 349.934C490.404 358.646 488.77 370.843 485.502 386.524C478.749 388.702 468.51 389.791 454.786 389.791L447.27 360.388H397.927Z" fill="white"/>
</svg>
