<svg width="100" height="100" viewBox="0 0 100 100" fill="none" xmlns="http://www.w3.org/2000/svg">
<g clip-path="url(#clip0_204_166)">
<path d="M50.0041 0.00405884C22.439 0.00405884 -0.012207 22.4148 -0.012207 49.9796C-0.012207 77.5447 22.439 99.9959 50.0041 99.9959C77.569 99.9959 100.012 77.5447 100.012 49.9796C100.012 22.4148 77.569 0.00405884 50.0041 0.00405884ZM74.5483 16.3452C76.8386 18.0142 78.9373 19.9088 80.839 22.0011L70.9676 29.7892C68.9788 27.7253 66.6978 25.9506 64.1805 24.5402L74.5483 16.3452ZM24.6216 16.9718L34.8999 25.0936C32.4595 26.5816 30.26 28.4153 28.3569 30.5298L18.4774 22.7498C20.3217 20.6186 22.3834 18.6906 24.6216 16.9718ZM50.0041 29.1626C61.5593 29.1626 70.8292 38.4244 70.8292 49.9796C70.8292 61.5349 61.5593 70.8374 50.0041 70.8374C38.4488 70.8374 29.1789 61.5349 29.1789 49.9796C29.1789 38.4244 38.4488 29.1626 50.0041 29.1626ZM27.8605 68.9005C29.7055 71.0606 31.8568 72.9426 34.2489 74.4914L24.0275 82.5724C21.8272 80.8179 19.8002 78.8558 17.9972 76.6968L27.8605 68.9005ZM71.464 69.6492L81.3192 77.4455C79.4591 79.566 77.3944 81.4855 75.1424 83.1909L64.8397 75.0529C67.3073 73.5808 69.5338 71.7582 71.464 69.6492Z" fill="#FFF500"/>
</g>
<defs>
<clipPath id="clip0_204_166">
<rect width="100" height="100" fill="white"/>
</clipPath>
</defs>
</svg>
