<svg width="90" height="90" viewBox="0 0 90 90" fill="none" xmlns="http://www.w3.org/2000/svg">
<path d="M45 89.833C43.7621 89.833 42.6067 89.5029 41.5338 88.9252L30.5574 82.4054C28.9068 81.4976 29.7321 81.1674 30.2273 81.0024C32.4556 80.2596 32.8682 80.0946 35.179 78.7741C35.4266 78.609 35.7568 78.6916 36.0043 78.8566L44.4223 83.8909C44.7524 84.056 45.1651 84.056 45.4127 83.8909L78.3418 64.8267C78.6719 64.6616 78.837 64.3315 78.837 63.9188V25.8729C78.837 25.4603 78.6719 25.1301 78.3418 24.9651L45.4127 5.98337C45.0825 5.81831 44.6699 5.81831 44.4223 5.98337L11.4932 24.9651C11.1631 25.1301 10.998 25.5428 10.998 25.8729V63.9188C10.998 64.249 11.1631 64.6616 11.4932 64.8267L20.4889 70.026C25.3581 72.5019 28.4117 69.6134 28.4117 66.7248V29.1741C28.4117 28.6789 28.8243 28.1837 29.402 28.1837H33.611C34.1062 28.1837 34.6013 28.5964 34.6013 29.1741V66.7248C34.6013 73.2446 31.0526 77.041 24.8629 77.041C22.9647 77.041 21.4792 77.041 17.2702 74.9778L8.60465 70.026C6.45889 68.7881 5.13843 66.4773 5.13843 64.0014V25.9554C5.13843 23.4796 6.45889 21.1687 8.60465 19.9308L41.5338 0.866556C43.597 -0.288852 46.403 -0.288852 48.4662 0.866556L81.3954 19.9308C83.5411 21.1687 84.8616 23.4796 84.8616 25.9554V64.0014C84.8616 66.4773 83.5411 68.7881 81.3954 70.026L48.4662 89.0902C47.3934 89.5854 46.1554 89.833 45 89.833ZM55.1511 63.6713C40.7085 63.6713 37.7375 57.0689 37.7375 51.4569C37.7375 50.9618 38.1501 50.4666 38.7278 50.4666H43.0193C43.5145 50.4666 43.9271 50.7967 43.9271 51.2919C44.5874 55.6659 46.4855 57.8117 55.2336 57.8117C62.1661 57.8117 65.1371 56.2436 65.1371 52.5298C65.1371 50.3841 64.3118 48.816 53.5005 47.7431C44.5048 46.8353 38.8929 44.8546 38.8929 37.6746C38.8929 30.9897 44.5048 27.0283 53.9132 27.0283C64.4769 27.0283 69.6762 30.6596 70.3365 38.5824C70.3365 38.83 70.2539 39.0776 70.0889 39.3252C69.9238 39.4902 69.6762 39.6553 69.4287 39.6553H65.1371C64.7245 39.6553 64.3118 39.3252 64.2293 38.9125C63.239 34.3734 60.6806 32.8879 53.9132 32.8879C46.3205 32.8879 45.4127 35.5288 45.4127 37.5095C45.4127 39.9029 46.4855 40.6456 56.7192 41.9661C66.8702 43.2866 71.6569 45.1847 71.6569 52.2822C71.5744 59.5448 65.6323 63.6713 55.1511 63.6713Z" fill="#539E43"/>
</svg>
