<svg width="100" height="100" viewBox="0 0 100 100" fill="none" xmlns="http://www.w3.org/2000/svg">
<g clip-path="url(#clip0_215_661)">
<path d="M18.8 85.05H81.2C86.7 78.15 90 69.5 90 60C90 37.95 72.1 20 50 20C27.9 20 10 37.95 10 60C10 69.5 13.3 78.15 18.8 85.05ZM45 30C45 27.25 47.25 25 50 25C52.75 25 55 27.25 55 30C55 32.8 52.75 35 50 35C47.25 35 45 32.8 45 30ZM20 40C20 37.25 22.25 35 25 35C27.75 35 30 37.25 30 40C30 42.8 27.75 45 25 45C22.25 45 20 42.8 20 40ZM42.6 57C46.8 52.85 75.15 39.5 75.15 39.5C75.15 39.5 61.85 67.9 57.7 72.05C53.5 76.25 46.8 76.25 42.6 72.05C38.45 67.9 38.45 61.15 42.6 57ZM15 65C15 62.25 17.25 60 20 60C22.75 60 25 62.25 25 65C25 67.8 22.75 70 20 70C17.25 70 15 67.8 15 65ZM45 65C45 62.25 47.25 60 50 60C52.75 60 55 62.25 55 65C55 67.8 52.75 70 50 70C47.25 70 45 67.8 45 65ZM75 65C75 62.25 77.25 60 80 60C82.75 60 85 62.25 85 65C85 67.8 82.75 70 80 70C77.25 70 75 67.8 75 65Z" fill="#FF00C7"/>
</g>
<defs>
<clipPath id="clip0_215_661">
<rect width="100" height="100" fill="white"/>
</clipPath>
</defs>
</svg>
