<svg width="114" height="114" viewBox="0 0 114 114" fill="none" xmlns="http://www.w3.org/2000/svg">
<path d="M73.9981 35.4051C73.0644 35.0439 72.097 34.7021 71.1009 34.3789C71.2646 33.6279 71.4149 32.8866 71.5485 32.1579C73.7416 20.1927 72.3076 10.5534 67.4112 7.37969C62.7161 4.33656 55.0376 7.50951 47.2827 15.0949C46.5369 15.8243 45.7891 16.5966 45.0417 17.4059C44.5436 16.8704 44.0463 16.353 43.5504 15.858C35.423 7.74718 27.2766 4.32918 22.3849 7.51203C17.6943 10.564 16.3052 19.6258 18.2793 30.9654C18.47 32.0607 18.6928 33.1792 18.9448 34.3164C17.7918 34.6843 16.6788 35.0765 15.6138 35.4936C6.08531 39.2275 0 45.0793 0 51.1492C0 57.4182 6.53259 63.7061 16.4572 67.5188C17.2404 67.8197 18.0531 68.1041 18.8906 68.3742C18.6188 69.6042 18.3823 70.8095 18.1838 71.9851C16.3015 83.1278 17.7715 91.9756 22.4496 95.0083C27.2817 98.1402 35.3913 94.921 43.288 87.1627C43.9121 86.5495 44.5385 85.8991 45.166 85.2174C45.9793 86.0977 46.7913 86.9308 47.5991 87.7123C55.2479 95.1102 62.8024 98.0975 67.4762 95.0564C72.3035 91.9155 73.8723 82.4109 71.8355 70.8469C71.68 69.9638 71.499 69.0615 71.2957 68.1432C71.8652 67.954 72.4243 67.7586 72.9694 67.5555C83.287 63.7133 90 57.5019 90 51.1492C90 45.0573 83.7184 39.1661 73.9981 35.4051ZM71.7602 63.4537C71.2681 63.6368 70.7632 63.8138 70.2486 63.9854C69.1096 59.9325 67.5723 55.6228 65.6911 51.1702C67.4863 46.8237 68.9641 42.5691 70.0713 38.5425C70.9919 38.842 71.8855 39.1578 72.7466 39.4911C81.075 42.7135 86.1552 47.478 86.1552 51.1492C86.1552 55.0596 80.6687 60.1359 71.7602 63.4537ZM68.0638 71.6862C68.9645 76.7996 69.0931 81.4227 68.4965 85.0368C67.9605 88.2843 66.8825 90.4495 65.5497 91.3166C62.7133 93.1618 56.6479 90.7633 50.1065 84.4365C49.3566 83.7112 48.6013 82.9368 47.8435 82.1172C50.3795 78.9999 52.914 75.3759 55.3876 71.3511C59.7384 70.9172 63.849 70.2077 67.5767 69.2392C67.7602 70.0716 67.9233 70.888 68.0638 71.6862ZM30.683 90.9977C27.9119 92.0977 25.7049 92.1292 24.3707 91.2646C21.5318 89.4242 20.3517 82.3203 21.9615 72.791C22.1459 71.6997 22.3654 70.5787 22.6183 69.4328C26.3051 70.3491 30.3855 71.0085 34.7468 71.4058C37.2371 75.3442 39.8448 78.9642 42.4727 82.1339C41.8986 82.7569 41.3266 83.35 40.7579 83.9089C37.2661 87.3395 33.7669 89.7735 30.683 90.9977ZM17.7007 63.4297C13.3122 61.7438 9.68802 59.5527 7.20382 57.1618C4.97161 55.0132 3.84461 52.88 3.84461 51.1492C3.84461 47.4658 8.73051 42.7676 16.8793 39.5743C17.8681 39.1868 18.9031 38.8216 19.9773 38.4786C21.1035 42.5961 22.5808 46.9011 24.3637 51.2543C22.5578 55.6722 21.0594 60.0457 19.9222 64.2115C19.1564 63.9641 18.4145 63.7038 17.7007 63.4297ZM22.0525 30.1355C20.3611 20.4201 21.4844 13.0911 24.3111 11.252C27.3221 9.29278 33.9801 12.0862 40.9974 19.0895C41.446 19.5371 41.8963 20.0056 42.3479 20.4903C39.733 23.6461 37.1491 27.239 34.681 31.1541C30.4482 31.5951 26.3964 32.3034 22.6712 33.2519C22.437 32.193 22.2295 31.1527 22.0525 30.1355ZM60.8744 40.9099C59.9839 39.181 59.0696 37.493 58.1376 35.8511C61.0091 36.2591 63.7604 36.8007 66.3441 37.4635C65.5684 40.2576 64.6016 43.179 63.4635 46.1739C62.6472 44.4318 61.7837 42.6754 60.8744 40.9099ZM45.0429 23.5786C46.8163 25.738 48.5923 28.149 50.3391 30.7648C48.5788 30.6714 46.7968 30.6228 45 30.6228C43.2202 30.6228 41.4513 30.6703 39.7019 30.7621C41.4505 28.1706 43.2418 25.7629 45.0429 23.5786ZM29.11 40.9398C28.2205 42.6736 27.373 44.4205 26.5695 46.1706C25.4498 43.1862 24.492 40.2514 23.7096 37.4177C26.2774 36.7719 29.0157 36.2438 31.869 35.8435C30.9238 37.5006 30.002 39.2014 29.11 40.9398ZM31.9512 66.7631C29.0032 66.3934 26.2237 65.8925 23.6566 65.2645C24.4515 62.3802 25.4304 59.3828 26.5738 56.3341C27.3794 58.0829 28.2302 59.8306 29.1253 61.5681C30.037 63.3382 30.9816 65.0722 31.9512 66.7631ZM45.1493 79.0244C43.327 76.8145 41.5094 74.3701 39.7343 71.7407C41.4575 71.8167 43.2144 71.8556 45 71.8556C46.8344 71.8556 48.6479 71.8092 50.4328 71.7199C48.6802 74.3966 46.9107 76.8448 45.1493 79.0244ZM63.5002 56.1787C64.7032 59.2603 65.7172 62.2421 66.5224 65.0772C63.9129 65.7463 61.0955 66.2852 58.127 66.6857C59.0613 65.0216 59.9836 63.3046 60.8898 61.5384C61.8066 59.7515 62.6771 57.9619 63.5002 56.1787ZM57.5594 59.3795C56.1526 62.1212 54.7082 64.7385 53.2419 67.2091C50.5712 67.4237 47.8121 67.5343 45 67.5343C42.1992 67.5343 39.4749 67.4365 36.8515 67.2451C35.3261 64.7421 33.8503 62.1171 32.4524 59.4031C31.0582 56.6965 29.7753 53.967 28.6126 51.2529C29.775 48.5324 31.0549 45.7999 32.4411 43.0981L32.4407 43.0987C33.8306 40.3897 35.2934 37.7775 36.8047 35.2902C39.4813 35.0628 42.226 34.9441 44.9998 34.9441C47.7862 34.9441 50.5345 35.0637 53.2103 35.2931C54.6986 37.7622 56.1514 40.366 57.5468 43.0753C58.958 45.815 60.2543 48.5293 61.4266 51.1915C60.2578 53.8993 58.9644 56.6411 57.5594 59.3795ZM65.4907 11.1234C68.5045 13.0768 69.6765 20.955 67.783 31.2857C67.6622 31.9449 67.5262 32.6163 67.3785 33.2968C63.6446 32.3284 59.5899 31.6079 55.3448 31.1602C52.8718 27.2021 50.3091 23.6036 47.7368 20.4883C48.4284 19.7405 49.119 19.0275 49.8068 18.3546C56.4512 11.8555 62.6613 9.28954 65.4907 11.1234ZM45 42.1163C49.4385 42.1163 53.0367 46.1603 53.0367 51.1492C53.0367 56.1378 49.4385 60.182 45 60.182C40.5615 60.182 36.9633 56.1378 36.9633 51.1492C36.9633 46.1603 40.5615 42.1163 45 42.1163Z" fill="#00D8FF"/>
</svg>
