<svg width="100" height="100" viewBox="0 0 100 100" fill="none" xmlns="http://www.w3.org/2000/svg">
<path d="M91.25 44.1249L83.3334 36.2083V24.9999C83.3334 22.7898 82.4554 20.6702 80.8926 19.1074C79.3298 17.5446 77.2102 16.6666 75 16.6666H63.7917L55.8751 8.74993C54.3137 7.19784 52.2016 6.32666 50.0001 6.32666C47.7985 6.32666 45.6864 7.19784 44.1251 8.74993L36.2084 16.6666H25.0001C22.7899 16.6666 20.6703 17.5446 19.1075 19.1074C17.5447 20.6702 16.6667 22.7898 16.6667 24.9999V36.2083L8.75005 44.1249C7.19796 45.6863 6.32678 47.7984 6.32678 49.9999C6.32678 52.2015 7.19796 54.3136 8.75005 55.8749L16.6667 63.7916V74.9999C16.6667 77.2101 17.5447 79.3297 19.1075 80.8925C20.6703 82.4553 22.7899 83.3333 25.0001 83.3333H36.2084L44.1251 91.2499C45.6864 92.802 47.7985 93.6732 50.0001 93.6732C52.2016 93.6732 54.3137 92.802 55.8751 91.2499L63.7917 83.3333H75C77.2102 83.3333 79.3298 82.4553 80.8926 80.8925C82.4554 79.3297 83.3334 77.2101 83.3334 74.9999V63.7916L91.25 55.8749C92.8021 54.3136 93.6733 52.2015 93.6733 49.9999C93.6733 47.7984 92.8021 45.6863 91.25 44.1249ZM50.0001 66.6666C46.7037 66.6666 43.4814 65.6891 40.7406 63.8578C37.9997 62.0264 35.8635 59.4234 34.6021 56.378C33.3406 53.3326 33.0105 49.9814 33.6536 46.7484C34.2967 43.5154 35.8841 40.5457 38.2149 38.2148C40.5458 35.8839 43.5155 34.2966 46.7486 33.6535C49.9816 33.0104 53.3327 33.3405 56.3781 34.6019C59.4235 35.8634 62.0265 37.9996 63.8579 40.7404C65.6892 43.4812 66.6667 46.7036 66.6667 49.9999C66.6667 54.4202 64.9108 58.6594 61.7852 61.785C58.6596 64.9107 54.4203 66.6666 50.0001 66.6666Z" fill="#03FF4A"/>
</svg>
