<svg width="100" height="100" viewBox="0 0 100 100" fill="none" xmlns="http://www.w3.org/2000/svg">
<g clip-path="url(#clip0_204_147)">
<path d="M74 15H6C4.4087 15 2.88258 15.6321 1.75736 16.7574C0.632141 17.8826 0 19.4087 0 21L0 94C0 95.5913 0.632141 97.1174 1.75736 98.2426C2.88258 99.3679 4.4087 100 6 100H74C75.5913 100 77.1174 99.3679 78.2426 98.2426C79.3679 97.1174 80 95.5913 80 94V21C80 19.4087 79.3679 17.8826 78.2426 16.7574C77.1174 15.6321 75.5913 15 74 15Z" fill="#35495E"/>
<path opacity="0.2" d="M76 15H54C51.2386 15 49 17.2386 49 20V86C49 88.7614 51.2386 91 54 91H76C78.7614 91 81 88.7614 81 86V20C81 17.2386 78.7614 15 76 15Z" fill="black"/>
<path d="M76 93C76 93.7957 75.6839 94.5587 75.1213 95.1213C74.5587 95.6839 73.7956 96 73 96H7C6.20435 96 5.44129 95.6839 4.87868 95.1213C4.31607 94.5587 4 93.7957 4 93V32H76V93Z" fill="white"/>
<path d="M9 27C10.6569 27 12 25.6569 12 24C12 22.3431 10.6569 21 9 21C7.34315 21 6 22.3431 6 24C6 25.6569 7.34315 27 9 27Z" fill="#D15527"/>
<path d="M17 27C18.6569 27 20 25.6569 20 24C20 22.3431 18.6569 21 17 21C15.3431 21 14 22.3431 14 24C14 25.6569 15.3431 27 17 27Z" fill="#F19B2D"/>
<path d="M25 27C26.6569 27 28 25.6569 28 24C28 22.3431 26.6569 21 25 21C23.3431 21 22 22.3431 22 24C22 25.6569 23.3431 27 25 27Z" fill="#53BB72"/>
<path fill-rule="evenodd" clip-rule="evenodd" d="M8 36H72V92H8V36Z" fill="#14A085"/>
<path fill-rule="evenodd" clip-rule="evenodd" d="M34 36H72V92H34V36Z" fill="#26B99A"/>
<path fill-rule="evenodd" clip-rule="evenodd" d="M94 0H58C56.4087 0 54.8826 0.632141 53.7574 1.75736C52.6321 2.88258 52 4.4087 52 6V82.001C52.0005 83.5919 52.6329 85.1176 53.7581 86.2423C54.8832 87.3671 56.409 87.999 58 87.999H94C95.591 87.999 97.1168 87.3671 98.2419 86.2423C99.3671 85.1176 99.9995 83.5919 100 82.001V6C100 4.4087 99.3679 2.88258 98.2426 1.75736C97.1174 0.632141 95.5913 0 94 0V0ZM96 74H56V14H96V74Z" fill="#35495E"/>
<path fill-rule="evenodd" clip-rule="evenodd" d="M56 14H96V74H56V14Z" fill="white"/>
<path fill-rule="evenodd" clip-rule="evenodd" d="M59 17H93V71H59V17Z" fill="#14A085"/>
<path fill-rule="evenodd" clip-rule="evenodd" d="M59 44H93V71H59V44Z" fill="#26B99A"/>
<path fill-rule="evenodd" clip-rule="evenodd" d="M69.5 6H81.5C81.8978 6 82.2794 6.15804 82.5607 6.43934C82.842 6.72064 83 7.10218 83 7.5C83 7.89782 82.842 8.27936 82.5607 8.56066C82.2794 8.84196 81.8978 9 81.5 9H69.5C69.1022 9 68.7206 8.84196 68.4393 8.56066C68.158 8.27936 68 7.89782 68 7.5C68 7.10218 68.158 6.72064 68.4393 6.43934C68.7206 6.15804 69.1022 6 69.5 6ZM76 78.001C76.7954 78.001 77.5582 78.317 78.1206 78.8794C78.683 79.4418 78.999 80.2046 78.999 81C78.999 81.7954 78.683 82.5582 78.1206 83.1206C77.5582 83.683 76.7954 83.999 76 83.999C75.5996 84.0093 75.2013 83.9394 74.8284 83.7934C74.4555 83.6473 74.1156 83.428 73.8288 83.1485C73.542 82.869 73.314 82.5349 73.1584 82.1659C73.0027 81.7969 72.9225 81.4005 72.9225 81C72.9225 80.5995 73.0027 80.2031 73.1584 79.8341C73.314 79.4651 73.542 79.131 73.8288 78.8515C74.1156 78.572 74.4555 78.3527 74.8284 78.2066C75.2013 78.0606 75.5996 77.9907 76 78.001Z" fill="#2C3D4F"/>
</g>
<defs>
<clipPath id="clip0_204_147">
<rect width="100" height="100" fill="white"/>
</clipPath>
</defs>
</svg>
