<svg width="208" height="225" viewBox="0 0 208 225" fill="none" xmlns="http://www.w3.org/2000/svg">
<path d="M167.571 14.9941C132.122 14.9941 84.5555 37.0504 52.6131 74.9703H26.1333C6.99929 74.9703 -3.96727 87.9222 -11.518 101.619L-21.6265 119.952H2.23768H26.1333L50.9333 142.444L75.7333 164.935V186.606V208.248L95.9486 199.082C111.052 192.233 125.333 182.287 125.333 164.935V140.92C167.146 111.952 191.467 68.8138 191.467 36.665V14.9941H167.571ZM125.333 59.9763C134.465 59.9763 141.867 66.6891 141.867 74.9703C141.867 83.2515 134.465 89.9644 125.333 89.9644C116.202 89.9644 108.8 83.2515 108.8 74.9703C108.8 66.6891 116.202 59.9763 125.333 59.9763ZM17.8666 149.941L9.59998 157.438C-2.34039 168.266 -6.93335 194.923 -6.93335 194.923C-6.93335 194.923 21.1402 191.954 34.4 179.929L42.6666 172.432L17.8666 149.941Z" fill="#5FC2BA"/>
</svg>
