<svg width="150" height="150" viewBox="0 0 150 150" fill="none" xmlns="http://www.w3.org/2000/svg">
<path d="M69.75 45.75C70.05 46.5 70.65 46.95 71.4 46.95H112.65C114.6 46.95 116.7 47.4 118.5 48.15C119.25 48.6 120.15 48 120.15 46.95C120.3 42.75 117 39.45 112.8 39.3H112.65H67.5C67.05 39.3 66.6 39.6 66.6 40.05C66.6 40.2 66.6 40.5 66.75 40.65L69.75 45.75Z" fill="#FF0000"/>
<path d="M112.65 54.6H70.0501C67.3501 54.6 64.9501 53.1 63.4501 50.85L56.8501 39.45C55.6501 37.05 53.1001 35.55 50.4001 35.55H37.6501C33.4501 35.55 30.1501 38.85 30.1501 43.05V43.2V111.9C30.0001 116.1 33.3001 119.4 37.5001 119.55H37.6501H112.65C116.85 119.55 120.15 116.25 120.15 112.05V111.9V62.25C120.3 58.05 117 54.75 112.8 54.6H112.65ZM93.0001 104.55C91.3501 106.35 88.6501 106.35 86.8501 104.7L86.7001 104.55L71.8501 89.7C70.9501 90.15 69.9001 90.3 68.8501 90.45C62.5501 91.2 56.8501 86.55 56.1001 80.25C56.1001 79.8 56.1001 79.35 56.1001 79.05C56.1001 78 56.2501 76.8 56.5501 75.75C56.7001 75.45 57.0001 75.15 57.4501 75.3C57.6001 75.3 57.6001 75.3 57.6001 75.45L64.0501 81.9C64.5001 82.35 65.4001 82.35 65.8501 81.9L70.3501 77.4C70.8001 76.95 70.8001 76.0501 70.3501 75.6001L63.9001 69.15C63.6001 68.85 63.7501 68.4 64.0501 68.25L64.2001 68.1001C65.2501 67.8001 66.4501 67.65 67.5001 67.65C73.8001 67.65 78.9001 72.75 78.9001 79.2C78.9001 79.65 78.9001 80.1 78.9001 80.4C78.75 81.45 78.4501 82.35 78.1501 83.4L93.0001 98.25C94.9501 99.9 95.2501 102.6 93.6001 104.55C93.3001 104.55 93.3001 104.7 93.0001 104.55Z" fill="#FF0000"/>
</svg>
