<svg width="249" height="45" viewBox="0 0 249 45" fill="none" xmlns="http://www.w3.org/2000/svg">
<g clip-path="url(#clip0_202_124)">
<path d="M24.3844 2.565C24.2087 2.21583 23.9395 1.92233 23.6068 1.71725C23.274 1.51216 22.8909 1.40356 22.5 1.40356C22.1092 1.40356 21.726 1.51216 21.3932 1.71725C21.0605 1.92233 20.7913 2.21583 20.6156 2.565L14.8106 14.0794L1.81126 15.9412C1.41928 15.9971 1.05094 16.1622 0.748375 16.4176C0.445811 16.673 0.221241 17.0084 0.100353 17.3855C-0.0205362 17.7625 -0.0328623 18.166 0.064784 18.5497C0.16243 18.9334 0.366106 19.2819 0.652514 19.5553L10.0322 28.4991L7.82158 41.1216C7.75398 41.5083 7.79566 41.9062 7.94192 42.2706C8.08818 42.6349 8.33322 42.9512 8.64946 43.1839C8.9657 43.4165 9.3406 43.5563 9.73196 43.5875C10.1233 43.6186 10.5156 43.54 10.8647 43.3603L22.5 37.3697L34.1353 43.3603C34.4844 43.54 34.8767 43.6186 35.2681 43.5875C35.6594 43.5563 36.0343 43.4165 36.3506 43.1839C36.6668 42.9512 36.9119 42.6349 37.0581 42.2706C37.2044 41.9062 37.246 41.5083 37.1785 41.1216L34.9678 28.4962L44.3475 19.5525C44.6331 19.279 44.836 18.9307 44.9332 18.5474C45.0303 18.1641 45.0178 17.7612 44.897 17.3847C44.7762 17.0081 44.5519 16.6732 44.2499 16.4179C43.9479 16.1627 43.5802 15.9975 43.1888 15.9412L30.1894 14.0794L24.3844 2.565Z" fill="#FFF500"/>
</g>
<g clip-path="url(#clip1_202_124)">
<path d="M75.3844 2.565C75.2087 2.21583 74.9395 1.92233 74.6068 1.71725C74.274 1.51216 73.8909 1.40356 73.5 1.40356C73.1092 1.40356 72.726 1.51216 72.3932 1.71725C72.0605 1.92233 71.7913 2.21583 71.6156 2.565L65.8106 14.0794L52.8113 15.9412C52.4193 15.9971 52.0509 16.1622 51.7484 16.4176C51.4458 16.673 51.2212 17.0084 51.1004 17.3855C50.9795 17.7625 50.9671 18.166 51.0648 18.5497C51.1624 18.9334 51.3661 19.2819 51.6525 19.5553L61.0322 28.4991L58.8216 41.1216C58.754 41.5083 58.7957 41.9062 58.9419 42.2706C59.0882 42.6349 59.3332 42.9512 59.6495 43.1839C59.9657 43.4165 60.3406 43.5563 60.732 43.5875C61.1233 43.6186 61.5156 43.54 61.8647 43.3603L73.5 37.3697L85.1353 43.3603C85.4844 43.54 85.8767 43.6186 86.2681 43.5875C86.6594 43.5563 87.0343 43.4165 87.3506 43.1839C87.6668 42.9512 87.9119 42.6349 88.0581 42.2706C88.2044 41.9062 88.246 41.5083 88.1785 41.1216L85.9678 28.4962L95.3475 19.5525C95.6331 19.279 95.836 18.9307 95.9332 18.5474C96.0303 18.1641 96.0178 17.7612 95.897 17.3847C95.7762 17.0081 95.5519 16.6732 95.2499 16.4179C94.9479 16.1627 94.5802 15.9975 94.1888 15.9412L81.1894 14.0794L75.3844 2.565Z" fill="#FFF500"/>
</g>
<g clip-path="url(#clip2_202_124)">
<path d="M126.384 2.565C126.209 2.21583 125.94 1.92233 125.607 1.71725C125.274 1.51216 124.891 1.40356 124.5 1.40356C124.109 1.40356 123.726 1.51216 123.393 1.71725C123.061 1.92233 122.791 2.21583 122.616 2.565L116.811 14.0794L103.811 15.9412C103.419 15.9971 103.051 16.1622 102.748 16.4176C102.446 16.673 102.221 17.0084 102.1 17.3855C101.979 17.7625 101.967 18.166 102.065 18.5497C102.162 18.9334 102.366 19.2819 102.653 19.5553L112.032 28.4991L109.822 41.1216C109.754 41.5083 109.796 41.9062 109.942 42.2706C110.088 42.6349 110.333 42.9512 110.649 43.1839C110.966 43.4165 111.341 43.5563 111.732 43.5875C112.123 43.6186 112.516 43.54 112.865 43.3603L124.5 37.3697L136.135 43.3603C136.484 43.54 136.877 43.6186 137.268 43.5875C137.659 43.5563 138.034 43.4165 138.351 43.1839C138.667 42.9512 138.912 42.6349 139.058 42.2706C139.204 41.9062 139.246 41.5083 139.178 41.1216L136.968 28.4962L146.348 19.5525C146.633 19.279 146.836 18.9307 146.933 18.5474C147.03 18.1641 147.018 17.7612 146.897 17.3847C146.776 17.0081 146.552 16.6732 146.25 16.4179C145.948 16.1627 145.58 15.9975 145.189 15.9412L132.189 14.0794L126.384 2.565Z" fill="#FFF500"/>
</g>
<g clip-path="url(#clip3_202_124)">
<path d="M177.384 2.565C177.209 2.21583 176.94 1.92233 176.607 1.71725C176.274 1.51216 175.891 1.40356 175.5 1.40356C175.109 1.40356 174.726 1.51216 174.393 1.71725C174.061 1.92233 173.791 2.21583 173.616 2.565L167.811 14.0794L154.811 15.9412C154.419 15.9971 154.051 16.1622 153.748 16.4176C153.446 16.673 153.221 17.0084 153.1 17.3855C152.979 17.7625 152.967 18.166 153.065 18.5497C153.162 18.9334 153.366 19.2819 153.653 19.5553L163.032 28.4991L160.822 41.1216C160.754 41.5083 160.796 41.9062 160.942 42.2706C161.088 42.6349 161.333 42.9512 161.649 43.1839C161.966 43.4165 162.341 43.5563 162.732 43.5875C163.123 43.6186 163.516 43.54 163.865 43.3603L175.5 37.3697L187.135 43.3603C187.484 43.54 187.877 43.6186 188.268 43.5875C188.659 43.5563 189.034 43.4165 189.351 43.1839C189.667 42.9512 189.912 42.6349 190.058 42.2706C190.204 41.9062 190.246 41.5083 190.178 41.1216L187.968 28.4962L197.348 19.5525C197.633 19.279 197.836 18.9307 197.933 18.5474C198.03 18.1641 198.018 17.7612 197.897 17.3847C197.776 17.0081 197.552 16.6732 197.25 16.4179C196.948 16.1627 196.58 15.9975 196.189 15.9412L183.189 14.0794L177.384 2.565Z" fill="#FFF500"/>
</g>
<g clip-path="url(#clip4_202_124)">
<path d="M228.384 2.565C228.209 2.21583 227.94 1.92233 227.607 1.71725C227.274 1.51216 226.891 1.40356 226.5 1.40356C226.109 1.40356 225.726 1.51216 225.393 1.71725C225.061 1.92233 224.791 2.21583 224.616 2.565L218.811 14.0794L205.811 15.9412C205.419 15.9971 205.051 16.1622 204.748 16.4176C204.446 16.673 204.221 17.0084 204.1 17.3855C203.979 17.7625 203.967 18.166 204.065 18.5497C204.162 18.9334 204.366 19.2819 204.653 19.5553L214.032 28.4991L211.822 41.1216C211.754 41.5083 211.796 41.9062 211.942 42.2706C212.088 42.6349 212.333 42.9512 212.649 43.1839C212.966 43.4165 213.341 43.5563 213.732 43.5875C214.123 43.6186 214.516 43.54 214.865 43.3603L226.5 37.3697L238.135 43.3603C238.484 43.54 238.877 43.6186 239.268 43.5875C239.659 43.5563 240.034 43.4165 240.351 43.1839C240.667 42.9512 240.912 42.6349 241.058 42.2706C241.204 41.9062 241.246 41.5083 241.178 41.1216L238.968 28.4962L248.348 19.5525C248.633 19.279 248.836 18.9307 248.933 18.5474C249.03 18.1641 249.018 17.7612 248.897 17.3847C248.776 17.0081 248.552 16.6732 248.25 16.4179C247.948 16.1627 247.58 15.9975 247.189 15.9412L234.189 14.0794L228.384 2.565Z" fill="#FFF500"/>
</g>
<defs>
<clipPath id="clip0_202_124">
<rect width="45" height="45" fill="white"/>
</clipPath>
<clipPath id="clip1_202_124">
<rect width="45" height="45" fill="white" transform="translate(51)"/>
</clipPath>
<clipPath id="clip2_202_124">
<rect width="45" height="45" fill="white" transform="translate(102)"/>
</clipPath>
<clipPath id="clip3_202_124">
<rect width="45" height="45" fill="white" transform="translate(153)"/>
</clipPath>
<clipPath id="clip4_202_124">
<rect width="45" height="45" fill="white" transform="translate(204)"/>
</clipPath>
</defs>
</svg>
