<svg width="100" height="100" viewBox="0 0 100 100" fill="none" xmlns="http://www.w3.org/2000/svg">
<path d="M49.9999 8.33334C27.0249 8.33334 8.33325 27.025 8.33325 50V67.2625C8.33325 71.5292 12.0708 75 16.6666 75H20.8333C21.9383 75 22.9981 74.561 23.7795 73.7796C24.5609 72.9982 24.9999 71.9384 24.9999 70.8333V49.4042C24.9999 48.2991 24.5609 47.2393 23.7795 46.4579C22.9981 45.6765 21.9383 45.2375 20.8333 45.2375H17.0499C19.3666 29.1125 33.2416 16.6667 49.9999 16.6667C66.7582 16.6667 80.6333 29.1125 82.9499 45.2375H79.1666C78.0615 45.2375 77.0017 45.6765 76.2203 46.4579C75.4389 47.2393 74.9999 48.2991 74.9999 49.4042V75C74.9999 79.5958 71.2624 83.3333 66.6666 83.3333H58.3333V79.1667H41.6666V91.6667H66.6666C75.8583 91.6667 83.3333 84.1917 83.3333 75C87.9291 75 91.6666 71.5292 91.6666 67.2625V50C91.6666 27.025 72.9749 8.33334 49.9999 8.33334Z" fill="#8F04FC"/>
</svg>
