<svg width="90" height="90" viewBox="0 0 90 90" fill="none" xmlns="http://www.w3.org/2000/svg">
<path d="M25.3125 38.5312C27.9375 28.0312 34.5 22.7812 45 22.7812C60.75 22.7812 62.7188 34.5937 70.5938 36.5625C75.8438 37.875 80.4375 35.9062 84.375 30.6562C81.75 41.1562 75.1875 46.4062 64.6875 46.4062C48.9375 46.4062 46.9687 34.5937 39.0937 32.625C33.8437 31.3125 29.25 33.2812 25.3125 38.5312ZM5.625 62.1562C8.25 51.6562 14.8125 46.4062 25.3125 46.4062C41.0625 46.4062 43.0313 58.2187 50.9063 60.1875C56.1563 61.5 60.75 59.5312 64.6875 54.2812C62.0625 64.7812 55.5 70.0312 45 70.0312C29.25 70.0312 27.2813 58.2187 19.4063 56.25C14.1563 54.9375 9.5625 56.9062 5.625 62.1562Z" fill="#44A8B3"/>
</svg>
