<svg width="90" height="90" viewBox="0 0 90 90" fill="none" xmlns="http://www.w3.org/2000/svg">
<g clip-path="url(#clip0_267_86)">
<path d="M0 45V90H45H90V45V0H45H0V45Z" fill="#007ACC"/>
<path d="M19.9024 45.2985L19.8739 48.9842L25.731 48.9842H31.5881V65.6271L31.5881 82.27H35.731H39.8738V65.6271V48.9842H45.731H51.5881V45.37C51.5881 43.37 51.5453 41.6985 51.4881 41.6557C51.4453 41.5985 44.3167 41.57 35.6738 41.5842L19.9453 41.6271L19.9024 45.2985Z" fill="white"/>
<path d="M72.6211 41.5225C74.9068 42.0939 76.6496 43.1082 78.2496 44.7653C79.0782 45.651 80.3068 47.2653 80.4068 47.651C80.4354 47.7653 76.5211 50.3939 74.1496 51.8653C74.0639 51.9225 73.7211 51.551 73.3354 50.9796C72.1782 49.2939 70.9639 48.5653 69.1068 48.4368C66.3782 48.251 64.6211 49.6796 64.6354 52.0653C64.6354 52.7653 64.7354 53.1796 65.0211 53.751C65.6211 54.9939 66.7354 55.7368 70.2354 57.251C76.6782 60.0225 79.4354 61.851 81.1496 64.451C83.0639 67.351 83.4925 71.9796 82.1925 75.4225C80.7639 79.1653 77.2211 81.7082 72.2354 82.551C70.6925 82.8225 67.0354 82.7796 65.3782 82.4796C61.7639 81.8368 58.3354 80.051 56.2211 77.7082C55.3925 76.7939 53.7782 74.4082 53.8782 74.2368C53.9211 74.1796 54.2925 73.951 54.7068 73.7082C55.1068 73.4796 56.6211 72.6082 58.0496 71.7796L60.6354 70.2796L61.1782 71.0796C61.9354 72.2368 63.5925 73.8225 64.5925 74.351C67.4639 75.8653 71.4068 75.651 73.3496 73.9082C74.1782 73.151 74.5211 72.3653 74.5211 71.2082C74.5211 70.1653 74.3925 69.7082 73.8496 68.9225C73.1496 67.9225 71.7211 67.0796 67.6639 65.3225C63.0211 63.3225 61.0211 62.0796 59.1925 60.1082C58.1354 58.9653 57.1354 57.1368 56.7211 55.6082C56.3782 54.3368 56.2925 51.151 56.5639 49.8653C57.5211 45.3796 60.9068 42.251 65.7925 41.3225C67.3782 41.0225 71.0639 41.1368 72.6211 41.5225Z" fill="white"/>
</g>
<defs>
<clipPath id="clip0_267_86">
<rect width="90" height="90" fill="white"/>
</clipPath>
</defs>
</svg>
