<svg width="119" height="119" viewBox="0 0 119 119" fill="none" xmlns="http://www.w3.org/2000/svg">
<g clip-path="url(#clip0_235_107)">
<path d="M58.3508 19.8594C22.44 19.8594 0 59.5 0 59.5C0 59.5 22.2258 99.1406 58.3508 99.1406C92.14 99.1406 117.786 59.5 117.786 59.5C117.786 59.5 92.3508 19.8594 58.3508 19.8594ZM58.6704 77.3534C48.8308 77.3534 40.8612 69.3804 40.8612 59.5442C40.8612 49.708 48.8342 41.7316 58.6704 41.7316C68.5066 41.7316 76.483 49.708 76.483 59.5442C76.483 69.3804 68.5066 77.3534 58.6704 77.3534ZM58.7792 50.6396C53.8832 50.6396 49.9154 54.6108 49.9154 59.5034C49.9154 64.396 53.8832 68.3672 58.7792 68.3672C63.6752 68.3672 67.643 64.3994 67.643 59.5034C67.6464 54.6108 63.6786 50.6396 58.7792 50.6396Z" fill="#5FC2BA"/>
</g>
<defs>
<clipPath id="clip0_235_107">
<rect width="119" height="119" fill="white"/>
</clipPath>
</defs>
</svg>
