<svg width="100" height="100" viewBox="0 0 100 100" fill="none" xmlns="http://www.w3.org/2000/svg">
<path d="M68.75 69.8093H31.25V90.9687H68.75V69.8093Z" fill="#333333"/>
<path d="M31.25 73.4688H53.5625L31.25 84.7781V73.4688Z" fill="black"/>
<path d="M73.7219 95.2812H26.2781C24.4375 95.2812 22.9344 93.775 22.9344 91.9375C22.9344 90.0969 24.4406 88.5938 26.2781 88.5938H73.7188C75.5594 88.5938 77.0625 90.1 77.0625 91.9375C77.0656 93.7781 75.5594 95.2812 73.7219 95.2812Z" fill="#999999"/>
<path d="M93.75 73.4688H6.25C2.8125 73.4688 0 70.6562 0 67.2188V10.9688C0 7.53125 2.8125 4.71875 6.25 4.71875H93.75C97.1875 4.71875 100 7.53125 100 10.9688V67.2188C100 70.6562 97.1875 73.4688 93.75 73.4688Z" fill="#D6D6D6"/>
<path d="M95.7281 9.00317H4.29065V69.1844H95.7281V9.00317Z" fill="#333333"/>
<path d="M23.3719 38.3374L41.3063 29.6343V33.0374L27.0813 39.6593V39.7343L41.3063 46.3937V49.7624L23.3719 41.0593V38.3374Z" fill="#0BA4E0"/>
<path d="M43.9313 51.275L53.1657 23.8438H56.4188L47.1844 51.275H43.9313Z" fill="#0BA4E0"/>
<path d="M76.6281 41.1374L58.6937 49.7655V46.3968L73.15 39.7374V39.6624L58.6937 33.003V29.6343L76.6281 38.2624V41.1374Z" fill="#0BA4E0"/>
</svg>
